<svg width="1000" height="1000" viewBox="0 0 1000 1000" fill="none" xmlns="http://www.w3.org/2000/svg">
<rect width="1000" height="1000" rx="100" fill="#BFFF00"/>
<path d="M505.52 325.96C537.605 325.96 566.107 330.397 591.024 339.272C615.941 347.805 637.787 360.947 656.56 378.696L610.992 445.768C595.632 432.797 579.248 422.728 561.84 415.56C544.773 408.051 525.829 404.296 505.008 404.296C494.427 404.296 485.893 405.32 479.408 407.368C472.923 409.416 468.144 412.317 465.072 416.072C462.341 419.485 460.976 423.411 460.976 427.848C460.976 433.309 464.219 437.747 470.704 441.16C477.531 444.573 486.917 447.645 498.864 450.376L550.064 462.152C584.197 470.003 609.627 481.608 626.352 496.968C643.077 511.987 651.44 532.637 651.44 558.92C651.44 584.52 644.955 605.853 631.984 622.92C619.355 639.987 601.947 652.787 579.76 661.32C557.573 669.853 532.485 674.12 504.496 674.12C482.309 674.12 460.635 671.901 439.472 667.464C418.651 663.027 399.536 656.712 382.128 648.52C364.72 639.987 349.701 629.917 337.072 618.312L382.128 549.192C391.344 558.067 402.608 566.088 415.92 573.256C429.232 580.083 443.397 585.544 458.416 589.64C473.435 593.736 487.941 595.784 501.936 595.784C511.835 595.784 519.856 594.931 526 593.224C532.485 591.176 537.093 588.445 539.824 585.032C542.555 581.619 543.92 577.523 543.92 572.744C543.92 566.941 541.701 562.333 537.264 558.92C532.827 555.165 524.464 551.923 512.176 549.192L455.856 536.392C437.424 532.296 420.357 526.664 404.656 519.496C388.955 512.328 376.325 502.429 366.768 489.8C357.552 476.829 352.944 459.933 352.944 439.112C352.944 416.925 358.917 397.299 370.864 380.232C382.811 363.165 400.219 349.853 423.088 340.296C445.957 330.739 473.435 325.96 505.52 325.96Z" fill="#132509"/>
</svg>
